<?xml version="1.0" encoding="UTF-8"?><svg id="Layer_2" xmlns="http://www.w3.org/2000/svg" viewBox="0 0 49.01 56.33"><g id="_1"><path d="M44.78,8.93c-.17.37-.51.68-1.03.93-.51.25-1.11.37-1.8.37-1.47.04-2.96.07-4.47.09-1.51.02-3.2.07-5.08.16-.51.04-.86.1-1.03.19-.17.08-.36.25-.56.5-.65.79-1.38,1.49-2.18,2.11-.8.62-1.81,1.24-3,1.86-.21.08-.44.15-.69.22s-.52.07-.8.03c-.21-.04-.35,0-.44.12s-.16.48-.23,1.05c-.07.7-.12,1.39-.15,2.05-.03.66-.09,1.32-.15,1.98-.21,1.65-.53,2.67-.98,3.04-.38.33-.72.51-1.03.53-.31.02-.72-.05-1.23-.22-.1-.04-.36-.07-.77-.09-.41-.02-1.11-.05-2.1-.09-.34,0-.56.07-.67.22-.1.15-.17.51-.21,1.08-.03.58,0,.95.13,1.12.12.17.37.25.74.25,1.2.04,2.32.08,3.36.12,1.04.04,1.96.12,2.75.25.68.08,1.14.3,1.36.65.22.35.25.75.08,1.21-.24.58-.48.96-.72,1.15-.24.19-.62.26-1.13.22-1.1-.04-2.1-.07-3.03-.09-.92-.02-1.8-.03-2.62-.03-.38,0-.64.07-.8.22-.15.15-.23.51-.23,1.08,0,1.08,0,1.95-.03,2.63-.02.68-.04,1.44-.08,2.26-.03.79-.29,1.45-.77,1.98-.48.54-1.32.64-2.52.31-.41-.12-.75-.26-1.03-.4-.27-.14-.48-.35-.62-.62s-.23-.63-.28-1.08c-.05-.45-.04-1.03.03-1.74.07-.66.11-1.21.13-1.64.02-.43.06-1,.13-1.7.03-.58,0-.95-.1-1.12-.1-.16-.31-.25-.62-.25-.96,0-1.91.02-2.85.06s-1.84.1-2.69.19c-.34.04-.72.09-1.13.16-.41.06-.92.22-1.54.46-.51.21-.93.28-1.26.22-.33-.06-.56-.22-.69-.46-.14-.25-.18-.56-.13-.93s.2-.74.44-1.12c.79-1.32,1.54-2.11,2.26-2.36.72-.25,1.2-.25,1.44,0,.27.29.7.43,1.28.43.72-.04,1.51-.07,2.36-.09.85-.02,1.68-.03,2.46-.03.38,0,.62-.08.74-.25s.21-.58.28-1.24c.03-.54-.03-.87-.21-.99-.17-.12-.5-.19-.98-.19-.86,0-1.54.12-2.05.37-.27.12-.52.21-.74.25s-.42,0-.59-.12c-.34-.25-.62-.47-.82-.68-.21-.21-.36-.43-.46-.68s-.17-.55-.21-.9c-.03-.35-.05-.77-.05-1.27,0-1.16-.03-2.39-.08-3.69-.05-1.3-.11-2.45-.18-3.44-.07-1.03-.06-1.71.03-2.05.08-.33.26-.58.54-.74.27-.17.64-.28,1.1-.34s.81-.05,1.05.03c.48.21.92.33,1.33.37s.94.04,1.59,0c.48-.04.8-.14.98-.31.17-.17.26-.48.26-.93,0-.5-.08-.81-.23-.93s-.49-.19-1-.19h-1.59c-.17,0-.43.03-.77.09s-.71.13-1.1.22c-.39.08-.77.18-1.13.28s-.62.2-.8.28c-.79.37-1.39.53-1.82.46-.43-.06-.72-.24-.87-.53-.15-.29-.18-.64-.08-1.05.1-.41.31-.78.62-1.12.99-1.07,1.74-1.74,2.23-1.98.5-.25.88-.33,1.15-.25.31.08.59.15.85.19.26.04.59.06,1,.06.38-.04.77-.06,1.18-.06h1.13c.51,0,.84-.11.98-.34s.21-.82.21-1.77c0-1.36.26-2.22.77-2.57.51-.35,1.11-.44,1.8-.28.85.21,1.51.59,1.95,1.15.44.56.63,1.33.56,2.32-.07.62-.03,1,.1,1.15.14.15.48.24,1.03.28.68.04,1.35.06,2,.06s1.3.04,1.95.12c.58.04,1.04.21,1.39.5.34.29.48.68.41,1.18-.17.99-.91,1.49-2.21,1.49-.72,0-1.41,0-2.08.03s-1.31.03-1.92.03c-.38,0-.64.08-.8.25-.15.17-.27.48-.33.93-.07.46-.03.77.13.93.15.17.57.25,1.26.25.85,0,1.51-.1,1.95-.31.41-.21.87-.27,1.39-.19.51.08,1.06.37,1.64.87.55.41.92.85,1.13,1.3.14.29.25.46.33.5s.21-.02.39-.19c.65-.66,1.26-1.44,1.82-2.33s1.06-1.79,1.49-2.7.77-1.79,1.03-2.64.42-1.58.49-2.2c.03-.62.18-1.11.44-1.46s.56-.6.92-.74.74-.18,1.13-.09c.39.08.78.27,1.16.56,1.47,1.2,1.81,2.63,1.03,4.28-.27.54-.39.88-.33,1.02.05.15.28.22.69.22,1.51-.04,2.91-.04,4.21,0s2.74.08,4.31.12c.82,0,1.39.24,1.69.71.31.48.34.96.1,1.46h.01ZM19.07,14.45c0-.87-.38-1.3-1.13-1.3-.96-.04-1.77-.06-2.44-.06h-3.29c-.46,0-.97.02-1.51.06-.55.04-.88.13-1,.28s-.18.44-.18.9c0,.54.07.88.21,1.02.14.15.46.22.98.22,1.44-.04,2.74-.04,3.9,0s2.24.1,3.23.19c.51.04.85-.03,1-.22s.23-.55.23-1.08h0ZM18.71,20.03c.07-.74.03-1.22-.1-1.43-.14-.21-.39-.33-.77-.37-1.23-.08-2.4-.13-3.49-.16-1.1-.02-2.24,0-3.44.03-.62,0-.99.09-1.13.28s-.21.61-.21,1.27c0,.7.07,1.13.21,1.27.14.15.41.22.82.22h6.88c.48,0,.8-.09.95-.28.15-.19.25-.46.28-.84h0ZM48.79,31.44c-.27.79-.78,1.66-1.51,2.63-.74.97-1.75,2.02-3.05,3.13-1.03.91-2.18,1.4-3.46,1.49-1.28.08-2.75-.17-4.39-.74-1.95-.7-3.62-1.4-5-2.08-1.39-.68-2.52-1.37-3.41-2.08-.51-.41-.96-.89-1.33-1.43-.38-.54-.61-1.13-.69-1.77-.09-.64,0-1.33.26-2.08.26-.74.74-1.53,1.46-2.36.72-.78,1.33-1.47,1.82-2.05.5-.58.93-1.08,1.31-1.52.38-.43.7-.84.98-1.21.27-.37.55-.74.82-1.12.34-.5.47-.93.39-1.3-.09-.37-.47-.56-1.15-.56-.34,0-.73.03-1.16.09s-.85.15-1.26.25-.79.23-1.13.37c-.34.15-.6.28-.77.4-.62.46-1.14.69-1.57.71s-.74-.1-.95-.37c-.21-.27-.3-.62-.28-1.05.02-.43.16-.86.44-1.27.85-1.4,1.47-2.26,1.85-2.57.38-.31.74-.38,1.08-.22.44.25,1.01.33,1.69.25.79-.08,1.57-.12,2.34-.12h2.44c.38,0,.69-.02.95-.06.26-.04.47-.1.64-.19.85-.41,1.85,0,2.98,1.24.62.7.86,1.48.74,2.32-.12.85-.57,1.46-1.36,1.83-.38.21-.85.51-1.41.9s-1,.75-1.31,1.08c-.48.54-1.1,1.28-1.85,2.23s-1.45,1.84-2.1,2.67c-.48.58-.68,1.2-.59,1.86.08.66.49,1.3,1.21,1.92.31.29,1.02.56,2.13.81s2.32.39,3.62.43c1.75.08,3.46-.05,5.16-.4,1.69-.35,3.28-.86,4.75-1.52.34-.16.6-.13.77.09.17.23.15.67-.05,1.33,0,0-.05.04-.05.04Z"/><path d="M11.19,45.21c-.5,2.22-1,5.46-.4,7.97.21-.65.51-1.57.79-2.34l.59.34c-.34.99-.79,2.49-.96,3.21-.04.21-.07.47-.06.65.01.13.03.32.04.47l-.88.12c-.29-.91-.77-2.79-.77-4.65,0-2.38.4-4.65.57-5.87.04-.32.06-.69.07-.94l1.22.13c-.07.25-.18.63-.24.91h.03ZM18.83,44.91c-.01.32.02,1.35.03,2.28.88-.07,1.72-.18,2.43-.35v1.07c-.69.12-1.53.22-2.41.28v.49c0,3.37.04,5.83-3.1,7.65l-.96-.75c.44-.18,1.02-.53,1.37-.87,1.66-1.41,1.71-3.13,1.71-6.03v-.43c-.63.03-1.28.04-1.9.04-.72,0-1.79-.04-2.41-.1v-1.04c.63.1,1.6.16,2.4.16.62,0,1.25-.01,1.88-.04-.01-.94-.06-1.97-.09-2.34-.03-.32-.07-.62-.13-.85h1.24c-.03.24-.04.51-.04.84h-.02Z"/><path d="M34.2,45.31c-.65,1.02-2.06,3.56-2.82,5,.74-.69,1.54-.99,2.28-.99.96,0,1.68.6,1.72,1.75.03.91,0,2.03.04,2.77.04.76.56,1.09,1.24,1.09,1.71,0,2.71-2.09,3.07-3.6l.87.71c-.78,2.34-2,3.97-4.1,3.97-1.56,0-2.03-.99-2.07-1.82-.04-.87-.02-2-.06-2.84-.04-.66-.44-1.07-1.12-1.07-1.22,0-2.38,1.24-2.96,2.4-.46.87-1.1,2.63-1.29,3.35l-1.13-.4c1.09-2.97,4.34-9.02,5.15-10.43.16-.34.34-.68.5-1.09l1.16.49c-.13.18-.31.44-.47.72h-.01Z"/></g></svg>